<svg height="96" width="96" xmlns="http://www.w3.org/2000/svg" xmlns:xlink="http://www.w3.org/1999/xlink"><linearGradient id="a"><stop offset="0" stop-color="#fefefe"/><stop offset="1" stop-color="#fefefe" stop-opacity="0"/></linearGradient><linearGradient id="b" gradientUnits="userSpaceOnUse" x1="36.357143" x2="36.357143" xlink:href="#a" y1="6" y2="63.893143"/><filter id="c" color-interpolation-filters="sRGB" height="1.384" width="1.384" x="-.192" y="-.192"><feGaussianBlur stdDeviation="5.28"/></filter><linearGradient id="d" gradientUnits="userSpaceOnUse" x1="48" x2="48" xlink:href="#a" y1="20.220806" y2="138.66119"/><radialGradient id="e" cx="48" cy="90.171875" gradientTransform="matrix(1.1573129 0 0 .99590774 -7.551021 .197132)" gradientUnits="userSpaceOnUse" r="42" xlink:href="#a"/><clipPath id="f"><rect height="84" rx="6" width="84" x="6" y="6"/></clipPath><linearGradient id="g" gradientTransform="matrix(1.0058652 0 0 .994169 100 0)" gradientUnits="userSpaceOnUse" x1="45.447727" x2="45.447727" y1="92.539597" y2="7.01654"><stop offset="0"/><stop offset="1" stop-opacity=".588235"/></linearGradient><linearGradient id="h" gradientTransform="matrix(1.0238095 0 0 1.0119048 -1.142857 -98.071429)" gradientUnits="userSpaceOnUse" x1="32.251034" x2="32.251034" xlink:href="#g" y1="6.131708" y2="90.238609"/><linearGradient id="i" gradientTransform="translate(0 -97)" gradientUnits="userSpaceOnUse" x1="32.251034" x2="32.251034" xlink:href="#g" y1="6.131708" y2="90.238609"/><linearGradient id="j" gradientUnits="userSpaceOnUse" x1="-90" x2="-6" y1="48" y2="48"><stop offset="0" stop-color="#b11400"/><stop offset="1" stop-color="#e62620"/></linearGradient><g fill="url(#h)"><path d="m12-95.03125c-5.5110903 0-10.03125 4.52016-10.03125 10.03125v71c0 5.5110902 4.5201598 10.03125 10.03125 10.03125h72c5.51109 0 10.03125-4.5201597 10.03125-10.03125v-71c0-5.51109-4.52016-10.03125-10.03125-10.03125z" opacity=".08" transform="scale(1 -1)"/><path d="m12-94.03125c-4.971633 0-9.03125 4.059617-9.03125 9.03125v71c0 4.9716329 4.0596171 9.03125 9.03125 9.03125h72c4.971633 0 9.03125-4.059617 9.03125-9.03125v-71c0-4.971633-4.059617-9.03125-9.03125-9.03125z" opacity=".1" transform="scale(1 -1)"/><path d="m12-93c-4.4091333 0-8 3.590867-8 8v71c0 4.4091333 3.5908667 8 8 8h72c4.409133 0 8-3.5908667 8-8v-71c0-4.409133-3.590867-8-8-8z" opacity=".2" transform="scale(1 -1)"/><rect height="85" opacity=".3" rx="7" transform="scale(1 -1)" width="86" x="5" y="-92"/></g><rect fill="url(#i)" height="84" opacity=".45" rx="6" transform="scale(1 -1)" width="84" x="6" y="-91"/><rect fill="url(#j)" height="84" rx="6" transform="rotate(-90)" width="84" x="-90" y="6"/><path d="m12 6c-3.324 0-6 2.676-6 6v2 68 2c0 .334721.04135.6507.09375.96875.0487.295596.09704.596915.1875.875.00988.03038.020892.0636.03125.09375.098865.287771.2348802.547452.375.8125.1445918.273507.3156161.535615.5.78125s.3737765.473472.59375.6875c.439947.428056.94291.814526 1.5 1.09375.278545.139612.5734731.246947.875.34375-.2562018-.100222-.4867109-.236272-.71875-.375-.00741-.0044-.023866.0045-.03125 0-.031933-.0193-.062293-.04251-.09375-.0625-.120395-.0767-.2310226-.163513-.34375-.25-.1061728-.0808-.2132809-.161112-.3125-.25-.1779299-.161433-.3474596-.345388-.5-.53125-.1075789-.130255-.2183939-.265285-.3125-.40625-.025089-.03838-.038446-.08587-.0625-.125-.064763-.103032-.1302275-.204517-.1875-.3125-.1010083-.194706-.2056748-.415701-.28125-.625-.00796-.02181-.023589-.04055-.03125-.0625-.0318251-.09195-.0358045-.186831-.0625-.28125-.0303323-.106618-.0703894-.203031-.09375-.3125-.0728786-.341512-.125-.698205-.125-1.0625v-2-68-2c0-2.781848 2.2181517-5 5-5h2 68 2c2.781848 0 5 2.218152 5 5v2 68 2c0 .364295-.05212.720988-.125 1.0625-.04415.206893-.08838.397658-.15625.59375-.0077.02195-.0233.04069-.03125.0625-.06274.173739-.138383.367449-.21875.53125-.04158.0828-.07904.169954-.125.25-.0546.09721-.126774.18835-.1875.28125-.09411.140965-.204921.275995-.3125.40625-.143174.17445-.303141.346998-.46875.5-.01117.0102-.01998.02115-.03125.03125-.138386.125556-.285091.234436-.4375.34375-.102571.07315-.204318.153364-.3125.21875-.0074.0045-.02384-.0044-.03125 0-.232039.138728-.462548.274778-.71875.375.301527-.0968.596455-.204138.875-.34375.55709-.279224 1.060053-.665694 1.5-1.09375.219973-.214028.409366-.441865.59375-.6875s.355408-.507743.5-.78125c.14012-.265048.276135-.524729.375-.8125.01041-.03078.02133-.06274.03125-.09375.09046-.278085.1388-.579404.1875-.875.0524-.31805.09375-.634029.09375-.96875v-2-68-2c0-3.324-2.676-6-6-6z" fill="url(#b)" opacity=".25"/><path d="m12 90c-3.324 0-6-2.676-6-6v-2-68-2c0-.334721.04135-.6507.09375-.96875.0487-.295596.09704-.596915.1875-.875.00988-.03038.020892-.0636.03125-.09375.098865-.287771.2348802-.547452.375-.8125.1445918-.273507.3156161-.535615.5-.78125s.3737765-.473472.59375-.6875c.439947-.428056.94291-.814526 1.5-1.09375.278545-.139612.5734731-.246947.875-.34375-.2562018.100222-.4867109.236272-.71875.375-.00741.0044-.023866-.0045-.03125 0-.031933.0193-.062293.04251-.09375.0625-.120395.0767-.2310226.163513-.34375.25-.1061728.0808-.2132809.161112-.3125.25-.1779299.161433-.3474596.345388-.5.53125-.1075789.130255-.2183939.265285-.3125.40625-.025089.03838-.038446.08587-.0625.125-.064763.103032-.1302275.204517-.1875.3125-.1010083.194706-.2056748.415701-.28125.625-.00796.02181-.023589.04055-.03125.0625-.0318251.09195-.0358045.186831-.0625.28125-.0303323.106618-.0703894.203031-.09375.3125-.0728786.341512-.125.698205-.125 1.0625v2 68 2c0 2.781848 2.2181517 5 5 5h2 68 2c2.781848 0 5-2.218152 5-5v-2-68-2c0-.364295-.05212-.720988-.125-1.0625-.04415-.206893-.08838-.397658-.15625-.59375-.0077-.02195-.0233-.04069-.03125-.0625-.06274-.173739-.138383-.367449-.21875-.53125-.04158-.0828-.07904-.169954-.125-.25-.0546-.09721-.126774-.18835-.1875-.28125-.09411-.140965-.204921-.275995-.3125-.40625-.143174-.17445-.303141-.346998-.46875-.5-.01117-.0102-.01998-.02115-.03125-.03125-.138386-.125556-.285091-.234436-.4375-.34375-.102571-.07315-.204318-.153364-.3125-.21875-.0074-.0045-.02384.0044-.03125 0-.232039-.138728-.462548-.274778-.71875-.375.301527.0968.596455.204138.875.34375.55709.279224 1.060053.665694 1.5 1.09375.219973.214028.409366.441865.59375.6875s.355408.507743.5.78125c.14012.265048.276135.524729.375.8125.01041.03078.02133.06274.03125.09375.09046.278085.1388.579404.1875.875.0524.31805.09375.634029.09375.96875v2 68 2c0 3.324-2.676 6-6 6z" fill="url(#e)" opacity=".1"/><rect height="66" rx="12" style="opacity:.1;stroke:#fefefe;stroke-width:.5;stroke-linecap:round;clip-path:url(#f);fill:url(#d);filter:url(#c)" width="66" x="15" y="15"/><path d="m18.118254 71.692024c-.156939-.156933-.285345-1.371064-.285345-2.698065 0-3.057328 1.522305-6.257846 3.996933-8.403216.979707-.84935 4.707484-2.968975 8.283939-4.710273 3.576462-1.741294 6.605486-3.332374 6.731165-3.535728.423526-.685277-1.225209-1.668269-6.17155-3.679545-5.764513-2.343956-8.283804-3.86283-10.631336-6.409603-1.917728-2.080488-2.762696-3.547929-3.418943-5.937613-.711565-2.591126-.109558-2.901452 8.715122-4.492555 4.229086-.76251 8.449866-1.429864 9.379517-1.48301l1.690267-.09662 1.496921 3.588631c1.770327 4.24407 4.62503 7.625051 7.631291 9.038161 3.80967 1.790758 10.440856 1.02719 12.261929-1.411936.786853-1.053907.803733-1.314762.268593-4.150899-.431727-2.288063-.450449-3.146899-.07674-3.52061.571059-.571058 9.574472-2.330629 13.996275-2.735342 3.668219-.335741 4.139531.058 4.40129 3.676823.413224 5.712804-1.644961 8.069627-9.332804 10.686919-2.082377.708936-3.210126 1.318421-3.210126 1.734895 0 .392061 2.267522 1.811546 5.824066 3.645904 6.584028 3.395854 9.887633 5.760618 11.834102 8.471024 1.972423 2.746558 3.394622 6.83159 2.744573 7.883385-.357144.577883-3.180247 1.219647-12.812797 2.912693-7.384192 1.297857-7.346596 1.305958-8.4092-1.812608-2.201912-6.462245-7.126534-10.529497-14.2224-11.746301-7.180183-1.231265-12.085335 1.90883-12.796707 8.191969-.364528 3.219636-.559532 3.789736-1.461384 4.272391-.700012.374642-14.381508 3.006484-15.629018 3.006484-.281763 0-.640701-.128404-.797639-.285348z" fill-opacity=".449219" stroke-width=".428016"/><path d="m18.118254 69.69202c-.147709-.147703-.268561-1.290414-.268561-2.539356 0-2.877485 1.432757-5.889737 3.761819-7.908909.922077-.799388 4.430574-2.794329 7.79665-4.433198 3.366082-1.638865 6.216928-3.136352 6.335214-3.327743.398613-.644967-1.153138-1.570137-5.808518-3.463101-5.425425-2.206077-7.796522-3.635606-10.005964-6.032569-1.80492-1.958107-2.600184-3.339228-3.217829-5.588342-.669707-2.438706-.103114-2.730778 8.202468-4.228286 3.980317-.717657 7.952816-1.345755 8.827782-1.395775l1.590839-.09094 1.408867 3.377536c1.66619 3.994417 4.352969 7.176518 7.182392 8.506504 3.585572 1.685419 9.826688.966766 11.540639-1.328882.740567-.991912.756455-1.237422.252793-3.906727-.406331-2.153471-.423951-2.961788-.07222-3.313516.537467-.537466 9.011267-2.193533 13.172959-2.574439 3.452446-.315992 3.896031.05458 4.142396 3.460539.388921 5.376757-1.548207 7.594942-8.783821 10.058276-1.959883.667234-3.021291 1.240867-3.021291 1.632843 0 .368998 2.134135 1.704984 5.481469 3.431439 6.196736 3.196098 9.306007 5.421758 11.137978 7.972728 1.856402 2.584996 3.194938 6.429732 2.583131 7.419657-.336141.54389-2.993165 1.147904-12.059097 2.741357-6.949832 1.221513-6.914451 1.229139-7.914546-1.705984-2.072385-6.082111-6.707323-9.910113-13.385786-11.05534-6.757819-1.158838-11.374433 1.796545-12.043959 7.710088-.343086 3.030244-.526619 3.566811-1.375421 4.021074-.658835.352604-13.535538 2.829632-14.709664 2.829632-.265189 0-.603013-.12085-.750719-.268562z" fill="#fefefe" stroke-width=".402839"/></svg>